<svg xmlns="http://www.w3.org/2000/svg" version="1.1" xmlns:xlink="http://www.w3.org/1999/xlink" xmlns:svgjs="http://svgjs.com/svgjs" width="1440" height="700" preserveAspectRatio="none" viewBox="0 0 1440 700"><g mask="url(&quot;#SvgjsMask5840&quot;)" fill="none"><rect width="1440" height="700" x="0" y="0" fill="rgba(13, 14, 18, 1)"></rect><g transform="translate(0, 0)" stroke-linecap="round" stroke="url(#SvgjsLinearGradient5841)"><path d="M265 289.215 L265 410.785" stroke-width="26.25"></path><path d="M300 224.685 L300 329.685" stroke-width="26.25"></path><path d="M300 369.06 L300 395.31" stroke-width="26.25"></path><path d="M300 434.685 L300 475.315" stroke-width="26.25"></path><path d="M335 219.195 L335 271.695" stroke-width="26.25"></path><path d="M335 311.07 L335 389.82" stroke-width="26.25"></path><path d="M335 429.195 L335 480.805" stroke-width="26.25"></path><path d="M370 320.305 L370 379.695" stroke-width="26.25"></path><path d="M405 310.635 L405 389.365" stroke-width="26.25"></path><path d="M440 227.755 L440 306.505" stroke-width="26.25"></path><path d="M440 345.88 L440 372.13" stroke-width="26.25"></path><path d="M440 411.505 L440 472.245" stroke-width="26.25"></path><path d="M475 247.075 L475 299.575" stroke-width="26.25"></path><path d="M475 338.95 L475 365.2" stroke-width="26.25"></path><path d="M475 404.575 L475 452.925" stroke-width="26.25"></path><path d="M510 232.445 L510 311.195" stroke-width="26.25"></path><path d="M510 350.57 L510 467.555" stroke-width="26.25"></path><path d="M545 205.685 L545 494.315" stroke-width="26.25"></path><path d="M580 213.005 L580 318.005" stroke-width="26.25"></path><path d="M580 357.38 L580 486.995" stroke-width="26.25"></path><path d="M615 148.625 L615 174.875" stroke-width="26.25"></path><path d="M615 214.25 L615 551.375" stroke-width="26.25"></path><path d="M650 220.925 L650 273.425" stroke-width="26.25"></path><path d="M650 312.8 L650 365.3" stroke-width="26.25"></path><path d="M650 404.675 L650 479.075" stroke-width="26.25"></path><path d="M685 321.555 L685 378.445" stroke-width="26.25"></path><path d="M720 228.655 L720 386.155" stroke-width="26.25"></path><path d="M720 425.53 L720 471.345" stroke-width="26.25"></path><path d="M755 302.695 L755 397.305" stroke-width="26.25"></path><path d="M790 293.865 L790 320.115" stroke-width="26.25"></path><path d="M790 359.49 L790 406.135" stroke-width="26.25"></path><path d="M825 314.235 L825 385.765" stroke-width="26.25"></path><path d="M860 308.445 L860 391.555" stroke-width="26.25"></path><path d="M895 274.855 L895 327.355" stroke-width="26.25"></path><path d="M895 366.73 L895 425.145" stroke-width="26.25"></path><path d="M930 310.505 L930 389.505" stroke-width="26.25"></path><path d="M965 251.515 L965 448.485" stroke-width="26.25"></path><path d="M1000 333.235 L1000 366.765" stroke-width="26.25"></path><path d="M1035 259.845 L1035 286.095" stroke-width="26.25"></path><path d="M1035 325.47 L1035 351.72" stroke-width="26.25"></path><path d="M1035 391.095 L1035 440.155" stroke-width="26.25"></path><path d="M1070 286.185 L1070 312.435" stroke-width="26.25"></path><path d="M1070 351.81 L1070 413.815" stroke-width="26.25"></path><path d="M1105 193.165 L1105 271.91499999999996" stroke-width="26.25"></path><path d="M1105 311.28999999999996 L1105 390.03999999999996" stroke-width="26.25"></path><path d="M1105 429.41499999999996 L1105 506.83500000000004" stroke-width="26.25"></path><path d="M1140 238.405 L1140 290.905" stroke-width="26.25"></path><path d="M1140 330.28 L1140 461.595" stroke-width="26.25"></path><path d="M1175 253.015 L1175 305.515" stroke-width="26.25"></path><path d="M1175 344.89 L1175 446.985" stroke-width="26.25"></path></g></g><defs><mask id="SvgjsMask5840"><rect width="1440" height="700" fill="#ffffff"></rect></mask><linearGradient x1="244.8" y1="350" x2="1195.2" y2="350" gradientUnits="userSpaceOnUse" id="SvgjsLinearGradient5841"><stop stop-color="rgba(169, 15, 100, 0.08)" offset="0.13"></stop><stop stop-color="rgba(169, 15, 100, 1)" offset="1"></stop></linearGradient></defs></svg>